
<svg width="175pt" height="12pt" viewBox="0 0 175 12" xmlns="http://www.w3.org/2000/svg"><g id="fontsvg1641296626324" stroke-linecap="round" fill-rule="evenodd" fill="#000000"><path d="M 162 11.25 L 159.75 11.25 L 159.75 1.125 L 160.875 1.125 L 160.875 2.25 L 162 2.25 L 162 3.375 L 163.125 3.375 L 163.125 4.5 L 164.25 4.5 L 164.25 3.375 L 165.375 3.375 L 165.375 2.25 L 166.5 2.25 L 166.5 1.125 L 167.625 1.125 L 167.625 11.25 L 165.375 11.25 L 165.375 5.625 L 164.25 5.625 L 164.25 6.75 L 163.125 6.75 L 163.125 5.625 L 162 5.625 L 162 11.25 Z M 92.25 11.25 L 87.75 11.25 L 87.75 10.125 L 86.625 10.125 L 86.625 9 L 88.875 9 L 88.875 10.125 L 91.125 10.125 L 91.125 7.875 L 87.75 7.875 L 87.75 6.75 L 86.625 6.75 L 86.625 4.5 L 87.75 4.5 L 87.75 3.375 L 92.25 3.375 L 92.25 4.5 L 93.375 4.5 L 93.375 5.625 L 91.125 5.625 L 91.125 4.5 L 88.875 4.5 L 88.875 6.75 L 92.25 6.75 L 92.25 7.875 L 93.375 7.875 L 93.375 10.125 L 92.25 10.125 L 92.25 11.25 Z M 133.875 11.25 L 129.375 11.25 L 129.375 10.125 L 128.25 10.125 L 128.25 9 L 130.5 9 L 130.5 10.125 L 132.75 10.125 L 132.75 7.875 L 129.375 7.875 L 129.375 6.75 L 128.25 6.75 L 128.25 4.5 L 129.375 4.5 L 129.375 3.375 L 133.875 3.375 L 133.875 4.5 L 135 4.5 L 135 5.625 L 132.75 5.625 L 132.75 4.5 L 130.5 4.5 L 130.5 6.75 L 133.875 6.75 L 133.875 7.875 L 135 7.875 L 135 10.125 L 133.875 10.125 L 133.875 11.25 Z M 6.75 11.25 L 0 11.25 L 0 1.125 L 6.75 1.125 L 6.75 2.25 L 2.25 2.25 L 2.25 5.625 L 5.625 5.625 L 5.625 6.75 L 2.25 6.75 L 2.25 10.125 L 6.75 10.125 L 6.75 11.25 Z M 61.875 11.25 L 59.625 11.25 L 59.625 3.375 L 65.25 3.375 L 65.25 4.5 L 66.375 4.5 L 66.375 11.25 L 64.125 11.25 L 64.125 4.5 L 61.875 4.5 L 61.875 11.25 Z M 84.375 11.25 L 78.75 11.25 L 78.75 10.125 L 77.625 10.125 L 77.625 3.375 L 79.875 3.375 L 79.875 10.125 L 82.125 10.125 L 82.125 3.375 L 84.375 3.375 L 84.375 11.25 Z M 124.875 11.25 L 120.375 11.25 L 120.375 10.125 L 119.25 10.125 L 119.25 4.5 L 120.375 4.5 L 120.375 3.375 L 124.875 3.375 L 124.875 4.5 L 126 4.5 L 126 7.875 L 121.5 7.875 L 121.5 10.125 L 123.75 10.125 L 123.75 9 L 126 9 L 126 10.125 L 124.875 10.125 L 124.875 11.25 Z M 43.875 11.25 L 40.5 11.25 L 40.5 10.125 L 39.375 10.125 L 39.375 4.5 L 38.25 4.5 L 38.25 3.375 L 39.375 3.375 L 39.375 1.125 L 41.625 1.125 L 41.625 3.375 L 43.875 3.375 L 43.875 4.5 L 41.625 4.5 L 41.625 10.125 L 43.875 10.125 L 43.875 11.25 Z M 101.25 11.25 L 97.875 11.25 L 97.875 10.125 L 96.75 10.125 L 96.75 4.5 L 95.625 4.5 L 95.625 3.375 L 96.75 3.375 L 96.75 1.125 L 99 1.125 L 99 3.375 L 101.25 3.375 L 101.25 4.5 L 99 4.5 L 99 10.125 L 101.25 10.125 L 101.25 11.25 Z M 57.375 11.25 L 52.875 11.25 L 52.875 10.125 L 54 10.125 L 54 2.25 L 52.875 2.25 L 52.875 1.125 L 57.375 1.125 L 57.375 2.25 L 56.25 2.25 L 56.25 10.125 L 57.375 10.125 L 57.375 11.25 Z M 75.375 11.25 L 69.75 11.25 L 69.75 10.125 L 68.625 10.125 L 68.625 4.5 L 69.75 4.5 L 69.75 3.375 L 73.125 3.375 L 73.125 1.125 L 75.375 1.125 L 75.375 11.25 Z M 105.75 11.25 L 103.5 11.25 L 103.5 3.375 L 109.125 3.375 L 109.125 4.5 L 110.25 4.5 L 110.25 6.75 L 108 6.75 L 108 4.5 L 105.75 4.5 L 105.75 11.25 Z M 148.5 11.25 L 146.25 11.25 L 146.25 10.125 L 145.125 10.125 L 145.125 9 L 144 9 L 144 3.375 L 145.125 3.375 L 145.125 2.25 L 146.25 2.25 L 146.25 1.125 L 148.5 1.125 L 148.5 2.25 L 147.375 2.25 L 147.375 3.375 L 146.25 3.375 L 146.25 9 L 147.375 9 L 147.375 10.125 L 148.5 10.125 L 148.5 11.25 Z M 155.25 11.25 L 153 11.25 L 153 2.25 L 150.75 2.25 L 150.75 1.125 L 157.5 1.125 L 157.5 2.25 L 155.25 2.25 L 155.25 11.25 Z M 172.125 11.25 L 169.875 11.25 L 169.875 10.125 L 171 10.125 L 171 9 L 172.125 9 L 172.125 3.375 L 171 3.375 L 171 2.25 L 169.875 2.25 L 169.875 1.125 L 172.125 1.125 L 172.125 2.25 L 173.25 2.25 L 173.25 3.375 L 174.375 3.375 L 174.375 9 L 173.25 9 L 173.25 10.125 L 172.125 10.125 L 172.125 11.25 Z M 13.5 11.25 L 9 11.25 L 9 10.125 L 10.125 10.125 L 10.125 2.25 L 9 2.25 L 9 1.125 L 12.375 1.125 L 12.375 10.125 L 13.5 10.125 L 13.5 11.25 Z M 20.25 11.25 L 15.75 11.25 L 15.75 10.125 L 16.875 10.125 L 16.875 2.25 L 15.75 2.25 L 15.75 1.125 L 19.125 1.125 L 19.125 10.125 L 20.25 10.125 L 20.25 11.25 Z M 34.875 11.25 L 30.375 11.25 L 30.375 10.125 L 29.25 10.125 L 29.25 4.5 L 30.375 4.5 L 30.375 3.375 L 34.875 3.375 L 34.875 4.5 L 36 4.5 L 36 10.125 L 34.875 10.125 L 34.875 11.25 Z M 27 11.25 L 22.5 11.25 L 22.5 10.125 L 23.625 10.125 L 23.625 4.5 L 22.5 4.5 L 22.5 3.375 L 25.875 3.375 L 25.875 10.125 L 27 10.125 L 27 11.25 Z M 117 11.25 L 112.5 11.25 L 112.5 10.125 L 113.625 10.125 L 113.625 4.5 L 112.5 4.5 L 112.5 3.375 L 115.875 3.375 L 115.875 10.125 L 117 10.125 L 117 11.25 Z M 31.5 10.125 L 33.75 10.125 L 33.75 4.5 L 31.5 4.5 L 31.5 10.125 Z M 70.875 10.125 L 73.125 10.125 L 73.125 4.5 L 70.875 4.5 L 70.875 10.125 Z M 25.875 2.25 L 23.625 2.25 L 23.625 0 L 25.875 0 L 25.875 2.25 Z M 115.875 2.25 L 113.625 2.25 L 113.625 0 L 115.875 0 L 115.875 2.25 Z M 121.5 6.75 L 123.75 6.75 L 123.75 4.5 L 121.5 4.5 L 121.5 6.75 Z" vector-effect="non-scaling-stroke"/></g></svg>
